<?xml version="1.0" encoding="utf-8"?>
<!-- Svg Vector Icons : http://www.onlinewebfonts.com/icon -->
<!DOCTYPE svg PUBLIC "-//W3C//DTD SVG 1.1//EN" "http://www.w3.org/Graphics/SVG/1.1/DTD/svg11.dtd">
<svg version="1.1" xmlns="http://www.w3.org/2000/svg" xmlns:xlink="http://www.w3.org/1999/xlink" x="0px" y="0px" viewBox="0 0 1000 1000" enable-background="new 0 0 1000 1000" xml:space="preserve">
<metadata> Svg Vector Icons : http://www.onlinewebfonts.com/icon </metadata>
<g><g transform="translate(0.000000,511.000000) scale(0.100000,-0.100000)"><path d="M972.8,4987c-388.4-93.6-723.1-416.5-828.4-797.9C102.3,4037,100,3866.1,100,110.4c0-3755.7,2.3-3926.5,44.5-4078.6c110-397.8,475-734.8,877.5-812c180.2-32.8,5527.1-32.8,5693.2,2.3c301.8,63.2,629.4,306.6,772.2,573.3c128.7,238.7,135.7,308.9,135.7,1343.2v947.7l-444.6-444.6l-444.6-444.6v-451.6c0-358-7-465.7-35.1-519.5c-77.2-149.8,93.6-142.7-2868.8-135.7l-2693.3,7l-67.9,77.2l-67.9,74.9v3861v3861l67.9,74.9l67.9,77.2l1207.4,7l1207.4,7V3028.4c0-1214.5,4.7-1265.9,140.4-1502.3c88.9-154.4,278.5-344,430.6-430.6c229.3-131,327.6-147.4,926.7-159.1l549.9-11.7l456.3,458.6l456.3,458.6h-943c-1022.6,0-1043.6,2.3-1099.8,128.7c-21.1,44.5-28.1,346.3-28.1,1106.8v1046l1088.1-1088.1l1088.1-1088.1l315.9,315.9l315.9,315.9L6027.2,3800.6L4803.4,5024.4l-1848.6-2.3C1461.9,5019.8,1080.5,5015.1,972.8,4987z"/><path d="M8779.1,2764c-37.5-18.7-149.8-112.3-245.7-210.6c-163.8-163.8-173.2-180.2-170.8-273.8c4.7-285.5,519.5-861.1,877.5-989.8c177.9-60.8,220-49.1,397.8,124c212.9,205.9,264.4,290.2,262.1,430.6c-2.3,159.1-86.6,292.5-367.4,573.3C9181.5,2771,8980.3,2864.6,8779.1,2764z"/><path d="M7857.1,1877.1c-285.5-287.8-292.5-294.8-290.2-393.1c7-301.9,564-905.6,924.3-1001.5c58.5-16.4,131.1-21.1,163.8-14c30.4,9.4,180.2,138.1,330,290.2l276.1,276.1l-100.6,2.3c-367.4,9.4-1050.7,704.3-1017.9,1036.6c4.7,53.8,7,95.9,7,95.9S8018.6,2038.6,7857.1,1877.1z"/><path d="M6118.5,138.5C4894.7-1087.6,4885.3-1097,4885.3-1190.6c0-168.5,121.7-367.4,383.8-629.5c320.6-320.6,563.9-446.9,725.4-374.4c39.8,16.4,613.1,571,1270.6,1233.2L8465.5,239.1l-100.6,2.3c-367.4,9.4-1050.7,704.3-1017.9,1036.6c4.7,53.8,7,95.9,7,95.9S6797.1,819.5,6118.5,138.5z"/><path d="M4410.3-2016.6c-138.1-264.4-355.7-685.6-486.7-936l-236.3-453.9l393.1,208.2c217.6,112.3,638.8,332.3,936,489.1l540.5,280.8l-138.1,77.2l-140.4,74.9l-479.7-248L4319-2772.5l248,479.7l250.4,482.1l-77.2,138l-77.2,140.4L4410.3-2016.6z"/></g></g>
</svg>