<?xml version="1.0" encoding="utf-8"?>
<!-- Svg Vector Icons : http://www.onlinewebfonts.com/icon -->
<!DOCTYPE svg PUBLIC "-//W3C//DTD SVG 1.1//EN" "http://www.w3.org/Graphics/SVG/1.1/DTD/svg11.dtd">
<svg version="1.1" xmlns="http://www.w3.org/2000/svg" xmlns:xlink="http://www.w3.org/1999/xlink" x="0px" y="0px" viewBox="0 0 1000 1000" enable-background="new 0 0 1000 1000" xml:space="preserve">
<metadata> Svg Vector Icons : http://www.onlinewebfonts.com/icon </metadata>
<g><path d="M939.3,990h-338c-28,0-50.7-22.7-50.7-50.7V601.4c0-28,22.7-50.7,50.7-50.7h338c28,0,50.7,22.7,50.7,50.7v337.9C990,967.3,967.3,990,939.3,990 M939.3,449.3h-338c-28,0-50.7-22.7-50.7-50.7v-338c0-28,22.7-50.7,50.7-50.7h338c28,0,50.7,22.7,50.7,50.7v338C990,426.6,967.3,449.3,939.3,449.3 M398.6,990h-338c-28,0-50.7-22.7-50.7-50.7V601.4c0-28,22.7-50.7,50.7-50.7h338c28,0,50.7,22.7,50.7,50.7v337.9C449.3,967.3,426.6,990,398.6,990 M398.6,449.3h-338c-28,0-50.7-22.7-50.7-50.7v-338C10,32.7,32.7,10,60.7,10h338c28,0,50.7,22.7,50.7,50.7v338C449.3,426.6,426.6,449.3,398.6,449.3"/></g>
</svg>