<?xml version="1.0" encoding="utf-8"?>
<!-- Svg Vector Icons : http://www.onlinewebfonts.com/icon -->
<!DOCTYPE svg PUBLIC "-//W3C//DTD SVG 1.1//EN" "http://www.w3.org/Graphics/SVG/1.1/DTD/svg11.dtd">
<svg version="1.1" xmlns="http://www.w3.org/2000/svg" xmlns:xlink="http://www.w3.org/1999/xlink" x="0px" y="0px" viewBox="0 0 1000 1000" enable-background="new 0 0 1000 1000" xml:space="preserve">
<metadata> Svg Vector Icons : http://www.onlinewebfonts.com/icon </metadata>
<g><g transform="translate(0.000000,511.000000) scale(0.100000,-0.100000)"><path d="M1537.6,4969.9c-218.5-58.1-374.9-148.3-547.3-320.7c-174.4-172.4-280.6-362.8-328.8-591.3c-44.1-210.5-44.1-7687.6,0-7898.1c94.2-449,465.1-821.9,916.1-922.1c132.3-28.1,487.1-30.1,3494-26l3347.7,6l110.3,42.1c222.5,86.2,332.8,154.4,483.1,306.7c152.4,150.3,220.5,260.6,306.7,483.1l42.1,110.2l6,3331.6l4,3329.6L8305.1,3915.5L7236.6,5010l-2776.3-2C1792.2,5008,1677.9,5006,1537.6,4969.9z M6805.6,3683c0-256.6,10-525.2,22.1-597.4c56.1-344.8,320.7-597.4,675.5-643.5c74.2-8,330.8-16,571.3-18h435V-641v-3063l-46.1-68.1c-24.1-36.1-76.2-88.2-112.3-112.3l-68.1-46.1H5001.5H1720l-68.2,46.1c-36.1,24.1-88.2,76.2-112.3,112.3l-46.1,68.1V108.8v3812.7l46.1,68.2c24.1,36.1,76.2,88.2,112.3,112.3l68.2,46.1h2541.8h2543.8V3683z"/></g></g>
</svg>