<?xml version="1.0" encoding="utf-8"?>
<!-- Svg Vector Icons : http://www.onlinewebfonts.com/icon -->
<!DOCTYPE svg PUBLIC "-//W3C//DTD SVG 1.1//EN" "http://www.w3.org/Graphics/SVG/1.1/DTD/svg11.dtd">
<svg version="1.1" xmlns="http://www.w3.org/2000/svg" xmlns:xlink="http://www.w3.org/1999/xlink" x="0px" y="0px" viewBox="0 0 1000 1000" enable-background="new 0 0 1000 1000" xml:space="preserve">
<metadata> Svg Vector Icons : http://www.onlinewebfonts.com/icon </metadata>
<g><g transform="translate(0.000000,511.000000) scale(0.100000,-0.100000)"><path d="M2145.2,4616.9c-201-63.1-327.1-175.4-417.7-366.5l-51.2-108.4l-5.9-959.5l-5.9-959.5l-535.9-5.9c-502.4-5.9-541.8-7.9-628.5-49.3c-130-59.1-281.7-206.9-344.8-338.9L100,1718.6V-350.3v-2068.8l55.2-110.4c63.1-132,214.8-279.8,344.8-338.9c86.7-41.4,126.1-43.3,630.5-49.3l535.9-5.9v738.8v740.8h3359.4h3359.4v-740.8v-738.8l508.3,5.9c470.9,5.9,512.3,9.9,599,49.3c130,59.1,281.8,206.9,344.8,338.9l55.2,110.4l5.9,2019.6c3.9,1980.2,3.9,2021.5-35.5,2151.6c-49.3,165.5-187.2,323.1-350.7,403.9l-112.3,55.2l-506.4,5.9l-506.4,5.9l-5.9,959.5c-5.9,937.9-5.9,961.5-49.3,1052.1c-59.1,130-206.9,281.7-338.9,344.8l-110.3,55.2l-2827.4,3.9C2754,4640.5,2212.2,4636.6,2145.2,4616.9z M7715.2,2821.9V1669.3H5015.9H2316.6v1152.6v1152.6h2699.3h2699.3V2821.9z"/><path d="M2123.5-2955l5.9-1020.6l57.1-114.3c37.4-76.8,86.7-139.9,153.7-191.1c183.2-145.8,25.6-137.9,2675.7-137.9c2650.1,0,2492.5-7.9,2675.7,137.9c67,51.2,116.3,114.3,153.7,191.1l57.1,114.3l5.9,1020.6l5.9,1018.7H5015.9H2117.6L2123.5-2955z"/></g></g>
</svg>